<svg width="25" height="25" viewBox="0 0 25 25" fill="none" xmlns="http://www.w3.org/2000/svg">
<path fill-rule="evenodd" clip-rule="evenodd" d="M13.8494 3.98831L20.0641 8.31451C21.0303 8.98769 21.6057 10.0849 21.6064 11.2556V17.6685C21.604 18.687 21.1936 19.6629 20.4654 20.3815C19.7372 21.1 18.7508 21.5024 17.7234 21.5H7.48951C6.46206 21.5024 5.47574 21.1 4.74752 20.3815C4.01931 19.6629 3.60885 18.687 3.60645 17.6685V11.2556C3.60722 10.0849 4.18258 8.98769 5.14878 8.31451L11.3635 3.98831C12.062 3.33723 13.1509 3.33723 13.8494 3.98831ZM19.5031 19.4275C19.9761 18.962 20.2432 18.3292 20.2456 17.6685V11.2556C20.2329 10.5382 19.8756 9.86994 19.2839 9.45677L13.0691 5.13057L12.9693 5.05862C12.8738 4.96193 12.743 4.90744 12.6064 4.90744C12.4699 4.90744 12.3391 4.96193 12.2435 5.05862L12.1437 5.13057L5.92903 9.45677C5.33732 9.86994 4.98004 10.5382 4.96733 11.2556V17.6685C4.96973 18.3292 5.23681 18.962 5.70981 19.4275C6.18282 19.8931 6.82299 20.1533 7.48951 20.1509H17.7234C18.3899 20.1533 19.0301 19.8931 19.5031 19.4275Z" fill="#303030"/>
<path d="M18.1135 11.6064L13.0873 15.0871C12.9385 15.2347 12.7342 15.3138 12.5239 15.3052C12.3136 15.2967 12.1166 15.2013 11.9804 15.0422L7.09939 11.6064C6.90332 11.4383 6.62793 11.3952 6.38919 11.4953C6.15045 11.5954 5.98982 11.8213 5.97495 12.0779C5.96008 12.3345 6.09354 12.5771 6.31914 12.7037L11.1276 16.1035C11.5219 16.4674 12.0405 16.6698 12.5792 16.6701C13.0859 16.6574 13.5689 16.4549 13.931 16.1035L18.8937 12.6677C19.179 12.4584 19.2541 12.0668 19.0661 11.7683C18.8463 11.4658 18.4224 11.3938 18.1135 11.6064Z" fill="#303030"/>
</svg>
