<svg width="20" height="21" viewBox="0 0 20 21" fill="none" xmlns="http://www.w3.org/2000/svg">
<g clip-path="url(#clip0_214_10480)">
<path d="M8.97093 0.5C9.64751 0.5 10.3224 0.5 10.999 0.5C11.3381 0.568493 11.6772 0.631975 12.0164 0.705479C14.1931 1.17491 16.0374 2.22569 17.4908 3.91463C19.6375 6.40712 20.3842 9.29552 19.7561 12.513C19.3334 14.6831 18.2643 16.5207 16.582 17.9624C13.7471 20.3914 10.4878 21.1098 6.94788 19.9754C3.3595 18.8244 1.13598 16.2969 0.23555 12.6283C0.145339 12.2541 0.0785165 11.8749 0 11.499C0 10.8224 0 10.1475 0 9.47093C0.026729 9.3874 0.0618109 9.30722 0.0801871 9.22202C0.212162 8.62897 0.282325 8.0142 0.479452 7.44287C1.71901 3.88289 4.1714 1.63598 7.84163 0.73555C8.21416 0.645339 8.59338 0.578517 8.97093 0.5ZM7.57768 11.4656C5.24223 9.65135 5.3291 6.72619 6.97962 5.04394C8.56832 3.42349 11.1427 3.30154 12.8717 4.93368C13.6485 5.66706 14.1046 6.57584 14.1781 7.63999C14.2867 9.22536 13.6385 10.4833 12.3705 11.4639C13.4414 11.8966 14.3368 12.4947 15.0819 13.3233C15.8253 14.1519 16.3147 15.1174 16.6438 16.1983C19.5606 12.9173 19.6241 7.5147 16.0775 4.14851C12.4106 0.668727 6.75743 0.900935 3.43301 4.6146C0.163715 8.26813 0.756765 13.4485 3.33445 16.1766C3.99766 13.9414 5.39091 12.366 7.57768 11.4656ZM10.1153 19.2972C11.993 19.2688 13.8824 18.6039 15.3826 17.4395C15.5747 17.2908 15.6281 17.1438 15.5847 16.9116C15.0835 14.197 12.7046 12.204 9.9716 12.219C7.23187 12.234 4.83795 14.2538 4.39358 16.9434C4.3702 17.0854 4.44871 17.3109 4.55897 17.3978C6.16271 18.6674 8.002 19.2705 10.1153 19.2972ZM9.99332 10.9995C11.704 10.9544 12.9936 9.66138 13.0037 7.96074C13.0137 6.31524 11.6288 4.96375 9.99332 4.95038C8.3595 4.93702 6.95456 6.33862 6.95623 7.98079C6.9579 9.62796 8.35282 11.0129 9.99332 10.9995Z" fill="#303030"/>
</g>
<defs>
<clipPath id="clip0_214_10480">
<rect width="19.9699" height="20" fill="white" transform="translate(0 0.5)"/>
</clipPath>
</defs>
</svg>
