<svg width="1202" height="877" viewBox="0 0 1202 877" fill="none" xmlns="http://www.w3.org/2000/svg">
<path opacity="0.6" d="M1085.55 284.093C1048.6 253.675 986.074 248.707 969.664 192.789C959.003 156.453 970.401 132.214 935.467 108.051C851.04 49.6259 749.416 67.0927 673.008 121.103C596.629 175.095 545.651 256.245 450.434 277.407C398.577 288.93 344.473 277.286 292.47 286.19C276.447 288.929 262.154 294.013 249.407 301.132C201.634 327.81 169.409 388.959 166.842 448.075C164.767 496.007 193.996 535.026 183.795 584.128C172.928 636.456 135.91 680.618 138.583 737.005C141.785 804.677 209.135 846.412 266.098 833.178C302.352 824.752 367.496 801.354 392.179 771.138C422.232 734.339 458.329 722.873 501.964 712.413C585.015 692.498 672.445 689.145 757.406 680.741C830.211 673.537 903.439 672.027 974.754 655.403C1027.12 643.197 1071.4 632.209 1084.6 568.488C1100.38 492.313 1163.05 347.896 1085.55 284.093Z" fill="#F0F4FA"/>
</svg>
