<svg width="219" height="55" viewBox="0 0 219 55" fill="none" xmlns="http://www.w3.org/2000/svg">
<path d="M33.591 22.5494C35.7276 23.7829 36.459 26.5146 35.2255 28.6512L21.6248 52.6542C20.3912 54.7908 17.6595 55.5222 15.5229 54.2887C13.3863 53.0552 12.6549 50.3235 13.8884 48.1869L27.4892 24.1839C28.7227 22.0473 31.4544 21.3158 33.591 22.5494Z" fill="url(#paint0_linear_439_6433)"/>
<path d="M9.95312 24.9261C9.95312 22.4591 11.9534 20.4588 14.4204 20.4588H44.1146C45.7026 20.4588 47.1719 21.3025 47.9724 22.6756C49.7095 25.6527 47.5617 29.3934 44.1146 29.3934H14.4204C11.9534 29.3934 9.95312 27.3931 9.95312 24.9261Z" fill="url(#paint1_linear_439_6433)"/>
<path d="M23.6908 0.111938C27.1652 0.111938 29.3259 3.88627 27.5678 6.88264L8.83891 37.4045C7.09852 40.3688 2.81089 40.3624 1.08012 37.3933L1.06568 37.3692C0.24601 35.9641 0.249216 34.2269 1.0737 32.825L19.8154 2.32713C20.6239 0.954065 22.098 0.111938 23.6908 0.111938Z" fill="url(#paint2_linear_439_6433)"/>
<path d="M44.0571 0.125997C47.4705 0.146849 49.6023 3.82815 47.9245 6.79885L42.7883 15.889C41.9766 17.3262 40.4384 18.2004 38.7878 18.1603L38.6226 18.1571C35.2188 18.0753 33.1495 14.3732 34.8659 11.4313L40.1657 2.3444C40.9725 0.96331 42.4563 0.116372 44.0571 0.125997Z" fill="url(#paint3_linear_439_6433)"/>
<path d="M80.3742 15.9556V34.5433C80.3742 35.6854 79.4855 36.5741 78.3755 36.5741C77.2655 36.5741 76.3448 35.6854 76.3448 34.5433V27.5336H60.5802V34.5433C60.5802 35.6854 59.6915 36.5741 58.5815 36.5741C57.4715 36.5741 56.5508 35.6854 56.5508 34.5433V15.9556C56.5508 14.8456 57.4699 13.9249 58.5815 13.9249C59.6915 13.9249 60.5802 14.8456 60.5802 15.9556V23.5043H76.3448V15.9556C76.3448 14.8456 77.2655 13.9249 78.3755 13.9249C79.4855 13.9249 80.3742 14.844 80.3742 15.9556Z" fill="#ffffff"/>
<path d="M108.636 15.9555C108.636 17.0655 107.717 17.9541 106.605 17.9541H86.8112C85.7011 17.9541 84.8125 17.0655 84.8125 15.9555C84.8125 14.8455 85.7011 13.9247 86.8112 13.9247H106.605C107.717 13.9247 108.636 14.8439 108.636 15.9555ZM108.636 25.2493C108.636 26.3593 107.717 27.2801 106.605 27.2801H86.8112C85.7011 27.2801 84.8125 26.3593 84.8125 25.2493C84.8125 24.1393 85.7011 23.2507 86.8112 23.2507H106.605C107.717 23.2507 108.636 24.1377 108.636 25.2493ZM108.636 34.5432C108.636 35.6853 107.717 36.574 106.605 36.574H86.8112C85.7011 36.574 84.8125 35.6853 84.8125 34.5432C84.8125 33.4332 85.7011 32.5446 86.8112 32.5446H106.605C107.717 32.5446 108.636 33.4332 108.636 34.5432Z" fill="#ffffff"/>
<path d="M115.836 25.2493C115.836 29.7535 119.04 32.5446 124.147 32.5446H125.733C128.366 32.5446 130.523 31.8147 131.983 30.4192C132.807 29.6573 134.076 29.6573 134.838 30.4834C135.6 31.2758 135.6 32.5446 134.774 33.3386C132.554 35.464 129.445 36.574 125.733 36.574H124.147C120.405 36.574 117.264 35.4319 115.044 33.2744C113.997 32.2591 113.172 31.0223 112.633 29.6268C112.094 28.2634 111.809 26.8037 111.809 25.2493C111.809 23.7271 112.094 22.2353 112.633 20.904C113.172 19.5084 113.997 18.2717 115.044 17.2243C117.264 15.0668 120.405 13.9247 124.147 13.9247H125.733C129.476 13.9247 132.616 15.0668 134.836 17.2243C135.629 18.0167 135.629 19.2855 134.868 20.0795C134.107 20.8719 132.807 20.904 132.013 20.1116C130.554 18.716 128.398 17.9541 125.732 17.9541H124.145C119.04 17.9525 115.836 20.7756 115.836 25.2493Z" fill="#ffffff"/>
<path d="M161.484 15.9554C161.484 17.0654 160.595 17.9541 159.485 17.9541H151.587V34.5432C151.587 35.6853 150.698 36.5739 149.588 36.5739C148.478 36.5739 147.557 35.6853 147.557 34.5432V17.9525H139.691C138.581 17.9525 137.66 17.0638 137.66 15.9538C137.66 14.8438 138.581 13.9231 139.691 13.9231H159.485C160.596 13.9247 161.484 14.8438 161.484 15.9554Z" fill="#ffffff"/>
<path d="M188.509 20.904C189.048 22.2369 189.333 23.7271 189.333 25.2493C189.333 26.8037 189.048 28.2634 188.509 29.6268C187.97 31.0223 187.146 32.2591 186.098 33.2744C183.878 35.4319 180.737 36.574 176.995 36.574H175.409C171.666 36.574 168.526 35.4319 166.306 33.2744C165.258 32.2591 164.434 31.0223 163.863 29.6268C163.356 28.2634 163.07 26.8037 163.07 25.2493C163.07 23.7271 163.356 22.2353 163.863 20.904C164.434 19.5084 165.258 18.2717 166.306 17.2243C168.526 15.0668 171.666 13.9247 175.409 13.9247H176.995C180.737 13.9247 183.878 15.0668 186.098 17.2243C187.146 18.2701 187.97 19.5068 188.509 20.904ZM185.306 25.2493C185.306 20.7772 182.102 17.9541 176.995 17.9541H175.409C170.269 17.9541 167.098 20.7772 167.098 25.2493C167.098 29.7535 170.271 32.5446 175.409 32.5446H176.995C182.101 32.5446 185.306 29.7535 185.306 25.2493Z" fill="#ffffff"/>
<path d="M218.455 34.5436C218.455 35.6857 217.536 36.5744 216.425 36.5744H213.189C212.618 36.5744 212.079 36.353 211.697 35.9408L205.544 29.2791H196.854V34.5452C196.854 35.6873 195.933 36.576 194.823 36.576C193.713 36.576 192.824 35.6873 192.824 34.5452V27.25C192.824 26.14 193.713 25.2193 194.823 25.2193H208.971C210.969 25.2193 212.618 23.6024 212.618 21.6037C212.618 19.6051 210.969 17.9561 208.971 17.9561H194.823C193.713 17.9561 192.824 17.0675 192.824 15.9575C192.824 14.8475 193.713 13.9268 194.823 13.9268H208.971C211.032 13.9268 212.936 14.7512 214.395 16.1788C215.855 17.6385 216.648 19.5409 216.648 21.6037C216.648 23.6666 215.855 25.569 214.395 27.0286C213.412 28.0119 212.175 28.7097 210.843 29.0273L214.078 32.5482H216.425C217.535 32.545 218.455 33.4336 218.455 34.5436Z" fill="#ffffff"/>
<defs>
<linearGradient id="paint0_linear_439_6433" x1="6.97322" y1="8.2071" x2="33.2697" y2="53.3877" gradientUnits="userSpaceOnUse">
<stop offset="2.75506e-07" stop-color="#FF0078"/>
<stop offset="0.0636" stop-color="#E80089"/>
<stop offset="0.1972" stop-color="#AD00B4"/>
<stop offset="0.3511" stop-color="#6200EB"/>
<stop offset="0.6622" stop-color="#05D1CE"/>
<stop offset="1" stop-color="#007DEB"/>
</linearGradient>
<linearGradient id="paint1_linear_439_6433" x1="15.4454" y1="1.17847" x2="43.7666" y2="49.8375" gradientUnits="userSpaceOnUse">
<stop offset="2.75506e-07" stop-color="#FF0078"/>
<stop offset="0.0636" stop-color="#E80089"/>
<stop offset="0.1972" stop-color="#AD00B4"/>
<stop offset="0.3511" stop-color="#6200EB"/>
<stop offset="0.6622" stop-color="#05D1CE"/>
<stop offset="1" stop-color="#007DEB"/>
</linearGradient>
<linearGradient id="paint2_linear_439_6433" x1="6.33192" y1="6.13199" x2="37.9361" y2="60.4318" gradientUnits="userSpaceOnUse">
<stop offset="2.75506e-07" stop-color="#FF0078"/>
<stop offset="0.0636" stop-color="#E80089"/>
<stop offset="0.1972" stop-color="#AD00B4"/>
<stop offset="0.3511" stop-color="#6200EB"/>
<stop offset="0.6622" stop-color="#05D1CE"/>
<stop offset="1" stop-color="#007DEB"/>
</linearGradient>
<linearGradient id="paint3_linear_439_6433" x1="31.3545" y1="-8.0808" x2="59.6756" y2="40.5783" gradientUnits="userSpaceOnUse">
<stop offset="2.75506e-07" stop-color="#FF0078"/>
<stop offset="0.0636" stop-color="#E80089"/>
<stop offset="0.1972" stop-color="#AD00B4"/>
<stop offset="0.3511" stop-color="#6200EB"/>
<stop offset="0.6622" stop-color="#05D1CE"/>
<stop offset="1" stop-color="#007DEB"/>
</linearGradient>
</defs>
</svg>
